<?xml version="1.0" standalone="no"?><!DOCTYPE svg PUBLIC "-//W3C//DTD SVG 1.1//EN" "http://www.w3.org/Graphics/SVG/1.1/DTD/svg11.dtd"><svg t="1525852707675" class="icon" style="" viewBox="0 0 1024 1024" version="1.1" xmlns="http://www.w3.org/2000/svg" p-id="3515" xmlns:xlink="http://www.w3.org/1999/xlink" width="200" height="200"><defs><style type="text/css"></style></defs><path d="M777.258568 772.727379C769.570295 790.536216 754.249663 790.368472 743.262422 775.04784 694.756407 707.391035 546.526498 559.97189 273.047628 770.211217 257.531294 782.121052 239.834287 778.01132 235.640684 759.503549 222.277067 700.765142 212.995224 575.460266 342.018428 486.360168 358.037994 475.289054 369.696212 452.503808 368.494046 433.464848 365.334864 383.644837 366.481116 286.101617 408.277365 186.042235 433.522859 123.501626 467.099645 80.055893 489.80102 55.341589 503.02485 40.999465 515.102428 29.928351 515.046513 28.698227 515.046513 28.027251 515.046513 27.300359 515.046513 26.573468 515.382002 19.388427 517.674505 13.517382 520.190667 13.489425L522.035853 13.461468C523.070275 13.43351 527.012262 9.156035 530.870378 3.955966 534.75645-1.300017 539.73286-1.300017 541.997406 3.955966 544.233994 9.183992 546.750157 13.43351 547.588877 13.43351 548.427598 13.43351 549.098575 13.43351 549.098575 13.43351 551.642694 13.461468 553.48788 19.248641 553.124434 26.517553 553.124434 27.468104 553.012605 28.446611 552.95669 29.341247 552.760988 30.878901 563.496614 42.84465 575.434405 57.438391 590.335677 75.694545 607.305793 100.073361 623.157614 131.022155 624.667312 133.957678 626.149051 136.865243 627.546919 139.688936 628.609299 141.953482 629.671679 143.994369 630.734058 146.286873 635.738425 156.910668 639.848157 166.639829 643.09121 174.943164 649.353658 191.046602 657.740865 219.199661 662.214043 237.623559 675.270128 291.721046 681.923979 356.414371 676.080892 432.989573 674.655067 452.084448 685.027246 476.658965 698.838181 489.575264 745.806541 533.52423 834.571151 639.482614 777.258568 772.727379ZM514.962641 310.871835C481.972959 315.205226 456.643594 341.345355 453.037095 372.210278 452.533862 376.543668 452.422033 380.932973 452.897308 385.462065 456.36402 421.918459 489.745105 447.471484 527.487537 442.495074 560.477219 438.245556 585.778627 412.077469 589.441041 381.156632 589.860402 376.935071 590.000188 372.433936 589.580828 367.932802 586.114116 331.44845 552.621202 305.895426 514.962641 310.871835ZM442.133725 743.903344C452.142459 785.671636 462.794212 860.177993 434.445452 925.849826 426.785136 943.602748 412.107523 942.260795 407.690261 923.836896 398.100887 883.91379 388.791087 813.097804 417.195762 742.505476 424.408761 724.58481 437.772377 725.451488 442.133725 743.903344ZM534.085474 744.546363C549.378148 799.734187 571.492418 914.946456 525.502565 1011.595041 517.171272 1029.040432 502.521617 1027.810308 497.377463 1009.610069 482.532107 956.994322 462.486681 848.519775 508.001259 743.288282 515.689532 725.53536 529.025192 726.262251 534.085474 744.546363ZM624.331823 745.776487C634.340557 787.544779 644.99231 862.107051 616.64355 927.778884 608.983234 945.559763 594.333579 944.21781 589.916316 925.737996 580.326943 885.870805 570.933271 814.998904 599.39386 744.350662 606.606859 726.457953 619.942518 727.324631 624.331823 745.776487Z" p-id="3516" fill="#888"></path></svg>
